<svg width="455" height="343" viewBox="0 0 455 343" fill="none" xmlns="http://www.w3.org/2000/svg">
<path fill-rule="evenodd" clip-rule="evenodd" d="M56.875 285.25H18.9583C8.49333 285.25 0 276.757 0 266.292V228.375H284.375V57.75H372.854C394.03 57.75 403.187 68.67 409.557 78.7369C420.818 96.5577 438.677 124.844 449.54 142.778C453.104 148.693 455 155.48 455 162.4V247.333C455 268.586 441.198 285.25 417.083 285.25H398.125C398.125 316.645 372.645 342.125 341.25 342.125C309.855 342.125 284.375 316.645 284.375 285.25H170.625C170.625 316.645 145.145 342.125 113.75 342.125C82.355 342.125 56.875 316.645 56.875 285.25ZM113.75 262.5C126.3 262.5 136.5 272.7 136.5 285.25C136.5 297.8 126.3 308 113.75 308C101.2 308 91 297.8 91 285.25C91 272.7 101.2 262.5 113.75 262.5ZM341.25 262.5C353.8 262.5 364 272.7 364 285.25C364 297.8 353.8 308 341.25 308C328.7 308 318.5 297.8 318.5 285.25C318.5 272.7 328.7 262.5 341.25 262.5ZM265.417 209.417H0V19.8333C0 9.36833 8.49333 0.875 18.9583 0.875H246.458C256.923 0.875 265.417 9.36833 265.417 19.8333V209.417ZM322.292 95.6667V152.542H411.68L384.627 105.222C381.252 99.3067 374.977 95.6667 368.171 95.6667H322.292Z" fill="white"/>
</svg>
