<?xml version="1.0" encoding="iso-8859-1"?>
<!-- Uploaded to: SVG Repo, www.svgrepo.com, Generator: SVG Repo Mixer Tools -->
<svg fill="#000000" height="800px" width="800px" version="1.1" id="Layer_1" xmlns="http://www.w3.org/2000/svg" xmlns:xlink="http://www.w3.org/1999/xlink" 
	 viewBox="0 0 511.992 511.992" xml:space="preserve">
<g>
	<g>
		<path d="M457.72,234.663h-52.395v-21.333c0-35.285-28.715-64-64-64v-21.333c0-11.776-9.536-21.333-21.333-21.333
			s-21.333,9.557-21.333,21.333v21.333h-42.667v-21.333c0-11.776-9.536-21.333-21.333-21.333c-11.797,0-21.333,9.557-21.333,21.333
			v21.333c-35.285,0-64,28.715-64,64v21.333h-128c-6.037,0-11.819,2.56-15.851,7.061c-4.053,4.48-5.995,10.475-5.355,16.491
			c5.312,50.88,38.955,147.115,128.256,147.115h276.949c6.293,0,12.245-2.859,16.299-7.659s5.76-11.243,4.693-17.429
			c-0.917-5.397-1.664-21.376,5.909-30.357c4.779-5.675,13.376-8.555,25.493-8.555c30.933,0,54.272-22.933,54.272-53.333
			S488.653,234.663,457.72,234.663z M362.659,234.663H191.992v-21.333c0-11.755,9.557-21.333,21.333-21.333h128
			c11.776,0,21.333,9.579,21.333,21.333V234.663z"/>
	</g>
</g>
</svg>