<svg width="716" height="242" viewBox="0 0 716 242" fill="none" xmlns="http://www.w3.org/2000/svg">
<path d="M96.9 114.9L99.1 107.9L115 57.5001C115.5 56.0001 127.8 23.0001 145 23.0001L134.1 57.6001L116 115L99.1 168.7L98 172.4H155.4L156.6 168.7L173.5 115L191.6 57.6001C191.7 57.3001 204.1 23.1001 221.6 23.0001L214 47.2001L210.7 57.5001L174.5 172.3H231.9L268.1 57.5001L271.4 47.2001L286.2 0.100098H228.8H209.7H152.3H133.2H75.3C49.4 0.100098 26.5 16.9001 18.7 41.6001L13.7 57.5001H57.7L41.8 107.9L39.6 114.9L21.5 172.3L3.40001 229.7L0.200012 240H57.6L60.8 229.7L78.9 172.3L97 114.9H96.9Z" fill="#dc1735"/>
<path d="M385 172.3L386.2 168.6L403.1 114.9H300.7L331.7 98.5001L344.6 57.5001H421.2L439.3 0.100098H305.3L251 172.3H385Z" fill="#dc1735"/>
<path d="M139.3 208.2C143.2 196.1 136.5 190.1 123.7 190.1H92.4L76.4 240.3H92L96.5 226.3H112.2C125 226.3 135.5 220.3 139.3 208.2ZM123.4 208.6C122 213 118.6 214.6 114.6 214.6H100.1L103.9 202.6H118.4C122.4 202.6 124.8 204.1 123.4 208.6Z" fill="white"/>
<path d="M151 227.7L153.2 220.7H180.2L183.9 209.1H156.9L159 202.7H192.1L196.1 190.1H147.7L131.7 240.3H180.8L184.8 227.7H151Z" fill="white"/>
<path d="M248.1 207.8C251.9 195.8 244.3 190.1 232.4 190.1H200.7L184.7 240.3H200.1L204.8 225.5H215.3L221.4 240.3H239.1L231.8 223.9C239.3 221.4 245.4 216.1 248.1 207.8ZM232.2 208.2C230.8 212.5 227.5 213.8 223.5 213.8H208.5L212.1 202.6H227.1C231.1 202.6 233.6 203.9 232.2 208.2Z" fill="white"/>
<path d="M269.2 203.2H301.8L306 190.1H257.9L241.9 240.3H257.4L262.7 223.6H289.7L293.7 210.8H266.8L269.2 203.2Z" fill="white"/>
<path d="M335.7 188.5C317.8 188.5 302.9 198.1 297.5 215.3C292 232.4 300.8 242 318.7 242C336.6 242 351.5 232.4 357 215.3C362.5 198.2 353.7 188.5 335.7 188.5ZM341.1 215.2C338.5 223.4 331.6 228.3 323 228.3C314.4 228.3 310.6 223.5 313.2 215.2C315.8 207 322.7 202.1 331.3 202.1C339.9 202.1 343.7 206.9 341.1 215.2Z" fill="white"/>
<path d="M416 207.8C419.8 195.8 412.2 190.1 400.3 190.1H368.6L352.6 240.3H368L372.7 225.5H383.2L389.3 240.3H407L399.7 223.9C407.2 221.4 413.4 216.1 416 207.8ZM400.1 208.2C398.7 212.5 395.4 213.8 391.4 213.8H376.4L380 202.6H395C399 202.6 401.5 203.9 400.1 208.2Z" fill="white"/>
<path d="M472.7 190.1L450.7 212L442.8 190.1H425.8L409.8 240.3H424.8L434.2 210.8L443.2 233.3H443.9L467.3 210.8L457.9 240.3H473.3L489.3 190.1H472.7Z" fill="white"/>
<path d="M512.6 190.1L474 240.3H490.2L496.6 231.6H518.9L519.8 240.3H536.2L529.6 190.1H512.7H512.6ZM504.9 220.3L516.3 204.8L517.8 220.3H504.9Z" fill="white"/>
<path d="M592.4 190.1L583.7 217.4L569.3 190.1H552.9L536.9 240.3H551.9L561.5 210.3L577.8 240.3H591.4L607.4 190.1H592.4Z" fill="white"/>
<path d="M642.8 221C638.2 226.1 633.3 228.2 627.9 228.2C620 228.2 616.1 223.5 618.8 215.1C621.5 206.8 628.3 202 636.2 202C644.1 202 645 204.3 646.2 209.1L661.5 201.6C660 194.1 652.5 188.3 640.7 188.3C623.2 188.3 608.4 197.9 603 215.1C597.5 232.2 606.2 241.8 623.1 241.8C640 241.8 646.7 236.1 653.1 228.5L642.7 220.9L642.8 221Z" fill="white"/>
<path d="M712 202.7L716 190.1H667.7L651.7 240.3H700.7L704.7 227.7H670.9L673.1 220.7H700.1L703.8 209.1H676.9L678.9 202.7H712Z" fill="white"/>
</svg>
