<?xml version="1.0" encoding="UTF-8"?>
<svg xmlns="http://www.w3.org/2000/svg" version="1.1" viewBox="0 0 128 128">
  <defs>
    <style>
      .cls-1 {
        fill: #fff;
      }

      .cls-2 {
        fill: #101c24;
      }
    </style>
  </defs>
  <!-- Generator: Adobe Illustrator 28.6.0, SVG Export Plug-In . SVG Version: 1.2.0 Build 709)  -->
  <g>
    <g id="Vrstva_1">
      <rect class="cls-2" x="-.5" y="-.5" width="128.9" height="128.9" rx="33.3" ry="33.3"/>
      <g>
        <path class="cls-1" d="M16.2,69.2c-.6,6.2,0,12.2,1.7,17.8.2.6.5,1.1.8,1.7h.2v-.2l1.1-.3c-1.2-7.2-.8-14.4,1.2-20.8.9-3.3,2.3-6.2,4.1-9.2,1.7-2.8,3.7-5.3,5.9-7.7.8-.8,1.4-1.4,2.2-2l-4.7-7.5c-6.9,7.5-11.6,17.2-12.5,28.1Z"/>
        <path class="cls-1" d="M105.7,50l-16.1,17.7v2.5c-.2,2-.5,4.2-1.1,6.1-.5,1.9-1.4,3.7-2.3,5.3l22.8,7.2.5.2c1.2-3.4,2-7.2,2.3-10.9.9-10.2-1.4-19.8-6.1-28Z"/>
        <path class="cls-1" d="M63.9,39.7c5.5.9,10.5,3.1,14.5,6.2.5.5,1.1.8,1.6,1.2l16.2-9.2c-2-1.9-4.2-3.6-6.6-5-6.2-3.9-13.4-6.4-21.1-7.2-11.2-1.1-22,1.9-30.9,7.8l5.5,8.9c1.2-.5,2.5-1.1,3.7-1.4,2.8-.9,5.6-1.4,8.6-1.7,2.8-.2,5.6-.2,8.4.3Z"/>
        <path class="cls-1" d="M101,44.1c-.2-.5-.8-.5-1.1-.3l-42,23.3c-.8.5-1.6,1.1-2.2,1.7-3.3,3.6-3,9.1.6,12.3,3.6,3.3,9.1,3,12.3-.6l32.3-35.5c.2-.3.3-.6,0-.9ZM61.7,79.5c-2.5-.2-4.2-2.3-4.1-4.8.2-2.5,2.3-4.2,4.8-4.1,2.5.2,4.2,2.3,4.1,4.8-.2,2.5-2.3,4.4-4.8,4.1Z"/>
      </g>
    </g>
  </g>
</svg>