<svg width="936" height="273" viewBox="0 0 936 273" fill="none" xmlns="http://www.w3.org/2000/svg">
<path d="M298.3 234.7C302.6 221.3 295.2 214.7 281.1 214.7H246.5L228.8 270.2H246L250.9 254.7H268.3C282.5 254.7 294 248.1 298.3 234.6V234.7ZM280.8 235.2C279.2 240.1 275.5 241.9 271.1 241.9H255.1L259.3 228.7H275.3C279.7 228.7 282.4 230.4 280.8 235.3V235.2Z" fill="white"/>
<path d="M311.3 256.3L313.7 248.6H343.5L347.6 235.7H317.8L320.1 228.7H356.6L361.1 214.7H307.7L290 270.2H344.2L348.6 256.3H311.3Z" fill="white"/>
<path d="M418.6 234.3C422.8 221.1 414.4 214.7 401.2 214.7H366.2L348.5 270.2H365.6L370.8 253.9H382.4L389.2 270.2H408.8L400.7 252C409 249.2 415.8 243.4 418.7 234.2L418.6 234.3ZM401 234.8C399.5 239.6 395.9 241 391.4 241H374.8L378.7 228.6H395.3C399.7 228.6 402.5 230 400.9 234.8H401Z" fill="white"/>
<path d="M442 229.2H478L482.6 214.7H429.4L411.7 270.2H428.9L434.8 251.7H464.5L469 237.6H439.3L442 229.2Z" fill="white"/>
<path d="M515.4 212.9C495.7 212.9 479.2 223.5 473.1 242.5C467.1 261.5 476.8 272.1 496.5 272.1C516.2 272.1 532.8 261.5 538.8 242.5C544.8 223.5 535.1 212.9 515.3 212.9H515.4ZM521.4 242.5C518.5 251.6 511 256.9 501.4 256.9C491.8 256.9 487.7 251.6 490.6 242.5C493.5 233.4 501.1 228.1 510.6 228.1C520.1 228.1 524.3 233.4 521.4 242.5Z" fill="white"/>
<path d="M604.2 234.3C608.4 221.1 600 214.7 586.8 214.7H551.8L534.1 270.2H551.2L556.4 253.9H568L574.8 270.2H594.4L586.3 252C594.6 249.2 601.4 243.4 604.3 234.2L604.2 234.3ZM586.6 234.8C585.1 239.6 581.5 241 577 241H560.4L564.3 228.6H580.9C585.3 228.6 588.1 230 586.5 234.8H586.6Z" fill="white"/>
<path d="M666.9 214.7L642.5 238.9L633.8 214.7H615L597.3 270.2H613.9L624.3 237.6L634.2 262.4H635L660.8 237.6L650.5 270.2H667.4L685.1 214.7H666.9Z" fill="white"/>
<path d="M710.9 214.7L668.2 270.2H686.1L693.2 260.6H717.9L718.9 270.2H737L729.7 214.7H711H710.9ZM702.4 248.1L715 231L716.7 248.1H702.5H702.4Z" fill="white"/>
<path d="M799.1 214.7L789.5 244.8L773.6 214.7H755.5L737.8 270.2H754.3L764.9 237L782.9 270.2H798L815.7 214.7H799.1Z" fill="white"/>
<path d="M854.8 248.9C849.8 254.5 844.3 256.9 838.4 256.9C829.7 256.9 825.4 251.7 828.3 242.5C831.2 233.3 838.8 228.1 847.6 228.1C856.4 228.1 857.4 230.6 858.7 235.9L875.6 227.6C873.9 219.4 865.7 212.9 852.7 212.9C833.4 212.9 817 223.5 811 242.5C805 261.5 814.5 272.1 833.2 272.1C851.9 272.1 859.3 265.8 866.4 257.4L854.9 249L854.8 248.9Z" fill="white"/>
<path d="M931.3 228.7L935.7 214.7H882.3L864.6 270.2H918.8L923.3 256.3H885.9L888.4 248.6H918.2L922.3 235.7H892.5L894.7 228.7H931.3Z" fill="white"/>
<path d="M293.6 64.7L252.8 194.1H403.7L405 189.9L424.1 129.4H308.8L343.7 110.9L358.3 64.7H444.5L464.9 0H263.1H148.8H84.7001C55.6001 0 29.8001 18.9 21.0001 46.7L15.3001 64.7H64.9001L47.0001 121.5L44.5001 129.4L24.1001 194.1L3.7001 258.8L0.100098 270.4H64.8001L68.4001 258.8L88.8001 194.1L109.2 129.4L111.7 121.5L129.6 64.7H177.9L160 121.5L157.5 129.4L157.2 130.4L137.1 194.1L147.3 161.7L137.1 194L116.7 258.7L113.1 270.3H177.8L181.4 258.7L201.8 194L222.2 129.3L224.7 121.4L228 110.8L242.6 64.6H293.4L293.6 64.7Z" fill="white"/>
</svg>
