<?xml version="1.0" encoding="UTF-8"?>
<svg xmlns="http://www.w3.org/2000/svg" version="1.1" viewBox="0 0 160 160">
  <defs>
    <style>
      .cls-1 {
        fill: #fff;
      }

      .cls-2 {
        fill: #041015;
      }
    </style>
  </defs>
  <!-- Generator: Adobe Illustrator 28.6.0, SVG Export Plug-In . SVG Version: 1.2.0 Build 709)  -->
  <g>
    <g id="Vrstva_1">
      <rect class="cls-2" width="160" height="160" rx="49" ry="49"/>
      <path class="cls-1" d="M96.2,61.3l-10.8,34.3h40l.4-1.1,5.1-16h-30.6l9.3-4.9,3.9-12.2h22.9l5.4-17.1h-53.5s-30.3,0-30.3,0h0s-17,0-17,0c-7.7,0-14.6,5-16.9,12.4l-1.5,4.8h13.2l-4.7,15-.7,2.1-5.4,17.1-5.4,17.1-1,3.1h17.1l1-3.1,5.4-17.1,5.4-17.1.7-2.1,4.7-15h0s12.8,0,12.8,0l-4.7,15-.7,2.1v.3c0,0-5.4,16.9-5.4,16.9h0s2.7-8.6,2.7-8.6l-2.7,8.6h0s-5.4,17.1-5.4,17.1l-1,3.1h17.1l1-3.1,5.4-17.1h0s5.4-17.1,5.4-17.1h0s.7-2.1.7-2.1l.9-2.8,3.9-12.2h13.5Z"/>
    </g>
  </g>
</svg>