<svg xmlns="http://www.w3.org/2000/svg" id="SvgjsSvg291344" width="4096" height="1100.7806754409705" version="1.1" xmlns:xlink="http://www.w3.org/1999/xlink" xmlns:svgjs="http://svgjs.com/svgjs"><defs id="SvgjsDefs291345"></defs><g id="SvgjsG291346" transform="translate(328, 328) scale(34.4)" opacity="1"><defs id="SvgjsDefs84525"></defs><g id="SvgjsG84526" transform="scale(0.1928090904481396)" opacity="1"><g id="SvgjsG84527" class="o9kuDiyeA" transform="translate(-2.0648886685224426, -19.446244513562615) scale(1.6540285001448871)" light-content="false" non-strokable="false" fill="#fff"><path d="M3.1 52.1l.7-.2c-.8-4.6-.5-9.2.8-13.3.6-2.1 1.5-4 2.6-5.9 1.1-1.8 2.4-3.4 3.8-4.9.5-.5.9-.9 1.4-1.3l-3-4.8c-4.4 4.8-7.4 11-8 18-.4 4 0 7.8 1.1 11.4.1.4.3.7.5 1.1h.1zm49.5-32.4c-1.3-1.2-2.7-2.3-4.2-3.2-4-2.5-8.6-4.1-13.5-4.6-7.2-.7-14.1 1.2-19.8 5l3.5 5.7c.8-.3 1.6-.7 2.4-.9 1.8-.6 3.6-.9 5.5-1.1 1.8-.1 3.6-.1 5.4.2 3.5.6 6.7 2 9.3 4 .3.3.7.5 1 .8l10.4-5.9zm10 25.6c-.2 2.4-.7 4.8-1.5 7l-.3-.1-14.6-4.6c.6-1 1.2-2.2 1.5-3.4.4-1.2.6-2.6.7-3.9v-1.6l10.3-11.3c3 5.2 4.5 11.4 3.9 17.9zm-6.9-21.7c-.1-.3-.5-.3-.7-.2L28.1 38.3c-.5.3-1 .7-1.4 1.1-2.1 2.3-1.9 5.8.4 7.9 2.3 2.1 5.8 1.9 7.9-.4l20.7-22.7c.1-.2.2-.4 0-.6zM30.5 46.3c-1.6-.1-2.7-1.5-2.6-3.1.1-1.6 1.5-2.7 3.1-2.6 1.6.1 2.7 1.5 2.6 3.1-.1 1.6-1.5 2.8-3.1 2.6z"></path></g><g id="SvgjsG84528" class="text" transform="translate(321.7049108726042, 33.13221396958805) scale(1)" light-content="false" fill="#fff"><path d="M-191.87 -16.24L-191.87 0L-184.16 0L-184.16 -16.24ZM-197.67 -22.24L-197.67 -17.39L-178.37 -17.39L-178.37 -22.24Z M-167.39 -16.24L-167.39 0L-159.69 0L-159.69 -16.24ZM-173.19 -22.24L-173.19 -17.39L-153.89 -17.39L-153.89 -22.24Z M-140.55 0L-140.55 -22.24L-143.5 -22.24L-147.96 -17.8L-147.96 -4.44L-143.5 0ZM-139.38 -17.8L-134.45 -17.8L-134.45 -13.32L-127.05 -13.32L-127.05 -17.8L-131.49 -22.24L-139.38 -22.24ZM-139.38 0L-131.49 0L-127.05 -4.44L-127.05 -7.69L-134.45 -7.69L-134.45 -4.44L-139.38 -4.44Z M-107.78 0L-100.51 0L-100.51 -22.24L-107.78 -22.24ZM-99.34 -17.8L-93.96 -17.8L-93.96 -10.17L-99.34 -10.17L-99.34 -5.71L-91.03 -5.71L-86.59 -10.17L-86.59 -17.8L-91.03 -22.24L-99.34 -22.24Z M-72.48 -9.13L-65.39 -9.13L-65.39 -13.42L-72.48 -13.42L-72.48 -22.24L-79.89 -22.24L-79.89 0L-72.48 0ZM-71.31 -17.93L-66.7 -17.93L-66.7 -15.8L-59.73 -15.8L-59.73 -22.24L-71.31 -22.24ZM-71.31 0L-59.73 0L-59.73 -6.67L-67.14 -6.67L-67.14 -4.44L-71.31 -4.44Z M-52.75 0L-45.34 0L-45.34 -22.24L-52.75 -22.24ZM-44.17 -17.8L-38.6 -17.8L-38.6 -10.98L-44.17 -10.98L-44.17 -6.67L-41.59 -6.67L-41.85 -7.26L-34.9 -8.18L-34.67 -7.71L-31.25 -11.13L-31.25 -17.8L-35.7 -22.24L-44.17 -22.24ZM-30.49 0L-34.67 -7.71L-35.7 -6.67L-41.59 -6.67L-38.4 0Z M-24.41 -22.24L-24.41 0L-17.01 0L-17.01 -7.93L-10.17 -7.93L-10.17 -12.3L-17.01 -12.3L-17.01 -22.24ZM-15.83 -17.8L-11.95 -17.8L-11.95 -14.86L-4.54 -14.86L-4.54 -22.24L-15.83 -22.24Z M8.19 -4.52L8.19 -17.73L10.97 -17.73L10.97 -22.24L5.27 -22.24L0.77 -17.8L0.77 -4.44L5.27 0L10.97 0L10.97 -4.52ZM14.98 -17.73L14.98 -4.52L12.15 -4.52L12.15 0L17.89 0L22.38 -4.44L22.38 -17.8L17.89 -22.24L12.15 -22.24L12.15 -17.73Z M29.23 0L36.64 0L36.64 -22.24L29.23 -22.24ZM37.81 -17.8L43.38 -17.8L43.38 -10.98L37.81 -10.98L37.81 -6.67L40.39 -6.67L40.12 -7.26L47.08 -8.18L47.31 -7.71L50.73 -11.13L50.73 -17.8L46.27 -22.24L37.81 -22.24ZM51.49 0L47.31 -7.71L46.27 -6.67L40.39 -6.67L43.58 0Z M57.58 -22.24L70.77 0L76.11 -9.2L76.11 -20.39L71.42 -12.35L65.46 -22.24ZM77.2 0L84.61 0L84.61 -22.24L77.2 -22.24ZM57.56 0L64.49 0L64.49 -8.56L57.56 -20.17Z M106.56 -2.43L107.5 0L114.99 0L106.12 -22.24L98.9 -22.24L104.85 -6.84L100.83 -6.84L99.29 -2.43ZM97.31 0L101.38 -12.4L98.1 -21.23L90.15 0Z M141.88 0L128.35 -22.24L120.53 -22.24L134 0ZM120.53 0L126.98 0L126.98 -9.55L120.53 -20.12ZM141.88 -22.24L135.43 -22.24L135.43 -12.73L141.88 -2.11Z M156.3 0L156.3 -22.24L153.35 -22.24L148.89 -17.8L148.89 -4.44L153.35 0ZM157.47 -17.8L162.4 -17.8L162.4 -13.32L169.81 -13.32L169.81 -17.8L165.37 -22.24L157.47 -22.24ZM157.47 0L165.37 0L169.81 -4.44L169.81 -7.69L162.4 -7.69L162.4 -4.44L157.47 -4.44Z M184.2 -9.13L191.28 -9.13L191.28 -13.42L184.2 -13.42L184.2 -22.24L176.79 -22.24L176.79 0L184.2 0ZM185.37 -17.93L189.98 -17.93L189.98 -15.8L196.95 -15.8L196.95 -22.24L185.37 -22.24ZM185.37 0L196.95 0L196.95 -6.67L189.54 -6.67L189.54 -4.44L185.37 -4.44Z"></path></g><g id="SvgjsG84529" class="text" transform="translate(239.11491087260418, 62.728042986219464) scale(1)" light-content="false" fill="#fff"><path d="M-115.08 -1.22L-115.08 0L-109.6 0L-109.6 -1.22L-111.4 -1.22L-111.4 -11.74L-108.48 -11.74C-107.6 -11.74 -106.93 -11.52 -106.46 -11.09C-106 -10.66 -105.76 -10.05 -105.76 -9.25C-105.76 -8.39 -106.03 -7.73 -106.57 -7.27C-107.1 -6.81 -107.87 -6.58 -108.87 -6.58L-110.53 -6.58L-110.53 -5.36L-108.8 -5.36C-107.19 -5.36 -105.96 -5.7 -105.11 -6.36C-104.25 -7.03 -103.83 -8 -103.83 -9.27C-103.83 -10.47 -104.24 -11.38 -105.07 -12.01C-105.9 -12.64 -107.1 -12.96 -108.68 -12.96L-115.08 -12.96L-115.08 -11.74L-113.29 -11.74L-113.29 -1.22Z M-94.62 -8.7C-95.27 -9.01 -95.88 -9.16 -96.46 -9.16C-97.52 -9.16 -98.3 -8.57 -98.79 -7.39L-98.79 -9.04L-102.22 -9.04L-102.22 -7.82L-100.47 -7.82L-100.47 -1.22L-102.22 -1.22L-102.22 0L-97.18 0L-97.18 -1.22L-98.79 -1.22L-98.76 -4.86C-98.76 -5.73 -98.56 -6.42 -98.16 -6.92C-97.75 -7.41 -97.24 -7.66 -96.62 -7.66C-96.09 -7.66 -95.56 -7.49 -95.04 -7.16Z M-91.24 -0.32C-90.5 0.08 -89.65 0.28 -88.68 0.28C-87.72 0.28 -86.86 0.08 -86.12 -0.32C-85.37 -0.72 -84.8 -1.29 -84.38 -2.03C-83.97 -2.76 -83.76 -3.61 -83.76 -4.56C-83.76 -5.49 -83.97 -6.32 -84.38 -7.04C-84.8 -7.76 -85.37 -8.32 -86.12 -8.71C-86.86 -9.1 -87.72 -9.3 -88.68 -9.3C-89.65 -9.3 -90.5 -9.1 -91.24 -8.71C-91.98 -8.32 -92.55 -7.76 -92.95 -7.04C-93.36 -6.32 -93.56 -5.49 -93.56 -4.53C-93.56 -3.58 -93.36 -2.74 -92.95 -2.01C-92.55 -1.28 -91.98 -0.72 -91.24 -0.32ZM-86.38 -2.01C-86.97 -1.38 -87.73 -1.06 -88.68 -1.06C-89.62 -1.06 -90.38 -1.38 -90.95 -2.01C-91.53 -2.65 -91.81 -3.49 -91.81 -4.53C-91.81 -5.56 -91.53 -6.39 -90.96 -7.02C-90.4 -7.65 -89.64 -7.96 -88.68 -7.96C-87.73 -7.96 -86.97 -7.65 -86.38 -7.03C-85.8 -6.41 -85.51 -5.58 -85.51 -4.56C-85.51 -3.5 -85.8 -2.65 -86.38 -2.01Z M-82.24 -1.22L-82.24 0L-76.42 0L-76.42 -1.22L-78.74 -1.22L-78.74 -7.82L-75.98 -7.82L-75.98 -9.04L-78.74 -9.04L-78.74 -10.95C-78.74 -12 -78.38 -12.52 -77.66 -12.52C-77.31 -12.52 -77.05 -12.41 -76.89 -12.2C-76.73 -11.98 -76.61 -11.66 -76.53 -11.23L-75.22 -11.6C-75.27 -12.34 -75.52 -12.87 -75.99 -13.21C-76.46 -13.55 -77.04 -13.72 -77.73 -13.72C-78.64 -13.72 -79.31 -13.47 -79.77 -12.99C-80.22 -12.51 -80.45 -11.84 -80.45 -10.98L-80.45 -9.04L-82.22 -9.04L-82.22 -7.82L-80.45 -7.82L-80.45 -1.22Z M-66.11 -4.17L-66.11 -4.6C-66.11 -6.05 -66.5 -7.19 -67.29 -8.03C-68.08 -8.88 -69.17 -9.3 -70.55 -9.3C-71.44 -9.3 -72.25 -9.1 -72.98 -8.71C-73.71 -8.32 -74.28 -7.76 -74.7 -7.03C-75.13 -6.3 -75.34 -5.46 -75.34 -4.51C-75.34 -3.57 -75.11 -2.74 -74.67 -2.01C-74.22 -1.28 -73.61 -0.72 -72.83 -0.32C-72.05 0.08 -71.18 0.28 -70.23 0.28C-69.38 0.28 -68.62 0.12 -67.95 -0.2C-67.27 -0.51 -66.71 -0.93 -66.27 -1.45L-66.87 -2.49C-67.9 -1.52 -69.04 -1.04 -70.3 -1.04C-71.2 -1.04 -71.95 -1.32 -72.53 -1.88C-73.11 -2.44 -73.46 -3.2 -73.56 -4.17ZM-67.79 -5.22L-73.56 -5.22C-73.46 -6.1 -73.13 -6.79 -72.57 -7.3C-72.02 -7.8 -71.35 -8.05 -70.55 -8.05C-69.74 -8.05 -69.07 -7.8 -68.56 -7.3C-68.04 -6.79 -67.79 -6.1 -67.79 -5.22Z M-57.65 -4.71C-58.07 -4.9 -58.64 -5.08 -59.34 -5.25L-60.52 -5.5C-61.14 -5.65 -61.59 -5.82 -61.85 -6.01C-62.11 -6.19 -62.24 -6.45 -62.24 -6.79C-62.24 -7.2 -62.06 -7.52 -61.69 -7.73C-61.32 -7.95 -60.87 -8.05 -60.33 -8.05C-59.89 -8.05 -59.44 -7.97 -58.99 -7.79C-58.53 -7.61 -58.19 -7.39 -57.96 -7.11L-57.8 -5.98L-56.6 -5.98L-56.6 -9.09L-57.96 -9.09L-57.96 -8.4C-58.25 -8.68 -58.65 -8.89 -59.15 -9.04C-59.64 -9.2 -60.13 -9.27 -60.61 -9.27C-61.59 -9.27 -62.39 -9.05 -63.01 -8.6C-63.63 -8.14 -63.94 -7.53 -63.94 -6.74C-63.94 -5.95 -63.72 -5.36 -63.28 -4.98C-62.83 -4.61 -62.14 -4.3 -61.21 -4.07L-59.94 -3.8C-59.14 -3.63 -58.6 -3.44 -58.31 -3.24C-58.01 -3.05 -57.87 -2.72 -57.87 -2.26C-57.87 -1.86 -58.06 -1.54 -58.44 -1.3C-58.83 -1.06 -59.32 -0.94 -59.92 -0.94C-60.47 -0.94 -60.99 -1.05 -61.49 -1.25C-61.99 -1.46 -62.37 -1.76 -62.63 -2.14L-62.72 -3.13L-63.92 -3.13L-63.92 0L-62.59 0L-62.59 -0.78C-62.28 -0.48 -61.87 -0.23 -61.34 -0.05C-60.82 0.14 -60.27 0.23 -59.69 0.23C-58.74 0.23 -57.92 0.01 -57.25 -0.44C-56.57 -0.88 -56.23 -1.53 -56.23 -2.39C-56.23 -3.01 -56.37 -3.5 -56.63 -3.87C-56.89 -4.23 -57.23 -4.51 -57.65 -4.71ZM-57.71 -6.65L-57.73 -6.7ZM-62.91 -2.72L-62.89 -2.65C-62.9 -2.66 -62.91 -2.68 -62.91 -2.72Z M-53.37 -11.36C-53.13 -11.13 -52.84 -11.02 -52.48 -11.02C-52.13 -11.02 -51.84 -11.13 -51.6 -11.36C-51.36 -11.58 -51.24 -11.86 -51.24 -12.2C-51.24 -12.54 -51.36 -12.82 -51.6 -13.04C-51.84 -13.26 -52.13 -13.37 -52.48 -13.37C-52.84 -13.37 -53.13 -13.26 -53.37 -13.04C-53.61 -12.82 -53.73 -12.54 -53.73 -12.2C-53.73 -11.86 -53.61 -11.58 -53.37 -11.36ZM-54.85 0L-49.79 0L-49.79 -1.22L-51.42 -1.22L-51.42 -9.04L-54.83 -9.04L-54.83 -7.82L-53.1 -7.82L-53.1 -1.22L-54.85 -1.22Z M-46.32 -0.32C-45.58 0.08 -44.73 0.28 -43.76 0.28C-42.79 0.28 -41.94 0.08 -41.2 -0.32C-40.45 -0.72 -39.87 -1.29 -39.46 -2.03C-39.04 -2.76 -38.84 -3.61 -38.84 -4.56C-38.84 -5.49 -39.04 -6.32 -39.46 -7.04C-39.87 -7.76 -40.45 -8.32 -41.2 -8.71C-41.94 -9.1 -42.79 -9.3 -43.76 -9.3C-44.73 -9.3 -45.58 -9.1 -46.32 -8.71C-47.05 -8.32 -47.62 -7.76 -48.03 -7.04C-48.44 -6.32 -48.64 -5.49 -48.64 -4.53C-48.64 -3.58 -48.44 -2.74 -48.03 -2.01C-47.62 -1.28 -47.05 -0.72 -46.32 -0.32ZM-41.46 -2.01C-42.04 -1.38 -42.81 -1.06 -43.76 -1.06C-44.7 -1.06 -45.45 -1.38 -46.03 -2.01C-46.6 -2.65 -46.89 -3.49 -46.89 -4.53C-46.89 -5.56 -46.61 -6.39 -46.04 -7.02C-45.47 -7.65 -44.71 -7.96 -43.76 -7.96C-42.81 -7.96 -42.04 -7.65 -41.46 -7.03C-40.88 -6.41 -40.59 -5.58 -40.59 -4.56C-40.59 -3.5 -40.88 -2.65 -41.46 -2.01Z M-26.41 -1.22L-28.09 -1.22L-28.09 -6.26C-28.09 -7.21 -28.37 -7.95 -28.93 -8.48C-29.49 -9.01 -30.2 -9.27 -31.06 -9.27C-32.04 -9.27 -33.13 -8.9 -34.33 -8.15L-34.33 -9.04L-37.75 -9.04L-37.75 -7.82L-36.01 -7.82L-36.01 -1.22L-37.75 -1.22L-37.75 0L-32.69 0L-32.69 -1.22L-34.33 -1.22L-34.33 -6.97C-33.79 -7.3 -33.29 -7.54 -32.84 -7.7C-32.39 -7.86 -31.94 -7.94 -31.49 -7.94C-30.96 -7.94 -30.54 -7.76 -30.23 -7.41C-29.92 -7.06 -29.77 -6.57 -29.77 -5.94L-29.77 -1.22L-31.26 -1.22L-31.26 0L-26.41 0Z M-16.21 -1.22L-17.64 -1.22L-17.64 -6.08C-17.64 -7.06 -17.98 -7.84 -18.65 -8.41C-19.33 -8.99 -20.26 -9.27 -21.44 -9.27C-22.02 -9.27 -22.65 -9.19 -23.31 -9.02C-23.98 -8.85 -24.57 -8.61 -25.07 -8.29L-24.57 -7.18C-24.09 -7.44 -23.57 -7.64 -22.99 -7.79C-22.42 -7.94 -21.91 -8.01 -21.46 -8.01C-20.79 -8.01 -20.26 -7.83 -19.88 -7.48C-19.51 -7.13 -19.32 -6.61 -19.32 -5.91L-19.32 -4.97C-20.21 -5.17 -21.05 -5.27 -21.83 -5.27C-22.92 -5.27 -23.8 -5.04 -24.46 -4.59C-25.13 -4.14 -25.47 -3.42 -25.47 -2.44C-25.47 -1.67 -25.18 -1.03 -24.6 -0.52C-24.03 0 -23.28 0.25 -22.36 0.25C-21.74 0.25 -21.19 0.17 -20.7 0C-20.21 -0.17 -19.72 -0.44 -19.23 -0.81L-19.14 0L-16.21 0ZM-23.38 -1.37C-23.7 -1.67 -23.85 -2.06 -23.85 -2.53C-23.85 -3.15 -23.65 -3.59 -23.24 -3.85C-22.84 -4.12 -22.33 -4.26 -21.71 -4.26C-20.93 -4.26 -20.13 -4.17 -19.32 -3.98L-19.32 -1.91C-20.27 -1.25 -21.2 -0.92 -22.11 -0.92C-22.64 -0.92 -23.07 -1.07 -23.38 -1.37ZM-21.9 -10.98L-20.82 -10.98L-18.74 -14.31L-20.68 -14.31Z M-15.25 0L-10.39 0L-10.39 -1.22L-11.86 -1.22L-11.86 -13.19L-15.2 -13.19L-15.2 -11.99L-13.57 -11.99L-13.57 -1.22L-15.25 -1.22Z M1.97 -1.22L0.29 -1.22L0.29 -6.26C0.29 -7.21 0.01 -7.95 -0.55 -8.48C-1.11 -9.01 -1.82 -9.27 -2.68 -9.27C-3.66 -9.27 -4.75 -8.9 -5.95 -8.15L-5.95 -9.04L-9.38 -9.04L-9.38 -7.82L-7.63 -7.82L-7.63 -1.22L-9.38 -1.22L-9.38 0L-4.32 0L-4.32 -1.22L-5.95 -1.22L-5.95 -6.97C-5.41 -7.3 -4.92 -7.54 -4.46 -7.7C-4.01 -7.86 -3.56 -7.94 -3.12 -7.94C-2.58 -7.94 -2.16 -7.76 -1.85 -7.41C-1.55 -7.06 -1.39 -6.57 -1.39 -5.94L-1.39 -1.22L-2.89 -1.22L-2.89 0L1.97 0Z M2.52 0L7.58 0L7.58 -1.22L5.95 -1.22L5.95 -9.04L2.54 -9.04L2.54 -7.82L4.27 -7.82L4.27 -1.22L2.52 -1.22ZM4.36 -10.98L5.44 -10.98L7.51 -14.31L5.58 -14.31Z M18.49 -7.02C19.12 -7.65 19.93 -7.96 20.91 -7.96C21.61 -7.96 22.21 -7.77 22.7 -7.4C23.19 -7.02 23.51 -6.51 23.65 -5.85L24.94 -5.85L24.94 -9.09L23.51 -9.09L23.51 -7.94C23.23 -8.35 22.83 -8.68 22.31 -8.93C21.79 -9.17 21.19 -9.3 20.52 -9.3C19.61 -9.3 18.8 -9.1 18.08 -8.7C17.36 -8.3 16.79 -7.74 16.39 -7.03C15.98 -6.32 15.78 -5.5 15.78 -4.58C15.78 -3.66 15.99 -2.83 16.41 -2.11C16.83 -1.38 17.41 -0.81 18.16 -0.39C18.9 0.02 19.75 0.23 20.7 0.23C21.62 0.23 22.43 0.06 23.14 -0.29C23.85 -0.63 24.44 -1.11 24.91 -1.73L24.2 -2.76C23.72 -2.22 23.23 -1.81 22.73 -1.53C22.22 -1.25 21.6 -1.1 20.86 -1.1C19.88 -1.1 19.08 -1.43 18.47 -2.08C17.86 -2.73 17.55 -3.58 17.55 -4.63C17.55 -5.59 17.86 -6.39 18.49 -7.02Z M37.36 -1.22L35.71 -1.22L35.71 -6.26C35.71 -7.21 35.42 -7.95 34.85 -8.48C34.29 -9.01 33.57 -9.27 32.71 -9.27C31.69 -9.27 30.55 -8.86 29.31 -8.03L29.31 -13.19L25.95 -13.19L25.95 -11.99L27.61 -11.99L27.61 -1.22L25.93 -1.22L25.93 0L30.78 0L30.78 -1.22L29.31 -1.22L29.31 -6.88C30.38 -7.59 31.38 -7.94 32.3 -7.94C32.84 -7.94 33.26 -7.76 33.55 -7.41C33.85 -7.06 34 -6.57 34 -5.94L34 -1.22L32.51 -1.22L32.51 0L37.36 0Z M39.63 -11.36C39.87 -11.13 40.16 -11.02 40.52 -11.02C40.87 -11.02 41.16 -11.13 41.4 -11.36C41.64 -11.58 41.76 -11.86 41.76 -12.2C41.76 -12.54 41.64 -12.82 41.4 -13.04C41.16 -13.26 40.87 -13.37 40.52 -13.37C40.16 -13.37 39.87 -13.26 39.63 -13.04C39.39 -12.82 39.27 -12.54 39.27 -12.2C39.27 -11.86 39.39 -11.58 39.63 -11.36ZM38.15 0L43.21 0L43.21 -1.22L41.57 -1.22L41.57 -9.04L38.17 -9.04L38.17 -7.82L39.89 -7.82L39.89 -1.22L38.15 -1.22Z M52.79 -8.73C52.13 -9.09 51.38 -9.27 50.55 -9.27C50 -9.27 49.46 -9.18 48.93 -9C48.4 -8.81 47.91 -8.55 47.47 -8.19L47.44 -9.04L44.27 -9.04L44.27 -7.82L45.86 -7.82L45.86 2.37L44.22 2.37L44.22 3.59L49.31 3.59L49.31 2.37L47.54 2.37L47.56 -0.69C47.87 -0.41 48.26 -0.19 48.74 -0.02C49.23 0.15 49.74 0.23 50.27 0.23C51.12 0.23 51.9 0.03 52.61 -0.36C53.32 -0.75 53.89 -1.31 54.31 -2.05C54.74 -2.78 54.95 -3.65 54.95 -4.65C54.95 -5.62 54.75 -6.45 54.37 -7.15C53.99 -7.84 53.46 -8.37 52.79 -8.73ZM52.29 -1.94C51.7 -1.34 50.93 -1.04 49.98 -1.04C49.56 -1.04 49.14 -1.11 48.72 -1.27C48.3 -1.42 47.91 -1.63 47.56 -1.91L47.54 -7.04C47.9 -7.35 48.33 -7.58 48.81 -7.73C49.3 -7.89 49.72 -7.96 50.09 -7.96C51 -7.96 51.74 -7.66 52.31 -7.04C52.89 -6.43 53.17 -5.58 53.17 -4.51C53.17 -3.41 52.88 -2.55 52.29 -1.94Z M57.52 -2.67C57.52 -0.89 58.4 0 60.15 0L61.83 0L61.83 -1.22L60.45 -1.22C60 -1.22 59.69 -1.33 59.5 -1.56C59.32 -1.8 59.23 -2.19 59.23 -2.76L59.23 -7.82L61.62 -7.82L61.62 -9.04L59.23 -9.04L59.23 -12.8L57.52 -12.13L57.52 -9.04L56.03 -9.04L56.03 -7.82L57.52 -7.82Z M73.98 -1.22L72.3 -1.22L72.3 -9.04L68.98 -9.04L68.98 -7.82L70.62 -7.82L70.62 -2.39C69.7 -1.55 68.72 -1.13 67.67 -1.13C67.11 -1.13 66.68 -1.29 66.4 -1.62C66.11 -1.95 65.97 -2.41 65.97 -2.99L65.97 -9.04L62.75 -9.04L62.75 -7.82L64.27 -7.82L64.27 -2.81C64.27 -1.92 64.52 -1.19 65.01 -0.62C65.51 -0.05 66.27 0.23 67.28 0.23C68.4 0.23 69.51 -0.21 70.62 -1.1L70.66 0L73.98 0Z M86.08 -1.22L84.4 -1.22L84.4 -6.26C84.4 -7.21 84.12 -7.95 83.56 -8.48C83 -9.01 82.29 -9.27 81.44 -9.27C80.45 -9.27 79.36 -8.9 78.17 -8.15L78.17 -9.04L74.74 -9.04L74.74 -7.82L76.49 -7.82L76.49 -1.22L74.74 -1.22L74.74 0L79.8 0L79.8 -1.22L78.17 -1.22L78.17 -6.97C78.7 -7.3 79.2 -7.54 79.65 -7.7C80.1 -7.86 80.55 -7.94 81 -7.94C81.54 -7.94 81.96 -7.76 82.26 -7.41C82.57 -7.06 82.72 -6.57 82.72 -5.94L82.72 -1.22L81.23 -1.22L81.23 0L86.08 0Z M88.12 -11.36C88.36 -11.13 88.65 -11.02 89.01 -11.02C89.36 -11.02 89.66 -11.13 89.89 -11.36C90.13 -11.58 90.25 -11.86 90.25 -12.2C90.25 -12.54 90.13 -12.82 89.89 -13.04C89.66 -13.26 89.36 -13.37 89.01 -13.37C88.65 -13.37 88.36 -13.26 88.12 -13.04C87.88 -12.82 87.76 -12.54 87.76 -12.2C87.76 -11.86 87.88 -11.58 88.12 -11.36ZM86.64 0L91.7 0L91.7 -1.22L90.07 -1.22L90.07 -9.04L86.66 -9.04L86.66 -7.82L88.39 -7.82L88.39 -1.22L86.64 -1.22Z M104.13 -1.22L102.45 -1.22L102.45 -6.26C102.45 -7.21 102.17 -7.95 101.61 -8.48C101.05 -9.01 100.34 -9.27 99.48 -9.27C98.5 -9.27 97.41 -8.9 96.21 -8.15L96.21 -9.04L92.78 -9.04L92.78 -7.82L94.53 -7.82L94.53 -1.22L92.78 -1.22L92.78 0L97.84 0L97.84 -1.22L96.21 -1.22L96.21 -6.97C96.75 -7.3 97.24 -7.54 97.69 -7.7C98.15 -7.86 98.6 -7.94 99.04 -7.94C99.58 -7.94 100 -7.76 100.31 -7.41C100.61 -7.06 100.77 -6.57 100.77 -5.94L100.77 -1.22L99.27 -1.22L99.27 0L104.13 0Z M115.75 -9.04L112.5 -9.04L112.5 -8.24C112.11 -8.56 111.63 -8.81 111.08 -8.99C110.53 -9.16 109.99 -9.25 109.47 -9.25C108.61 -9.25 107.83 -9.07 107.13 -8.71C106.43 -8.35 105.88 -7.82 105.49 -7.12C105.09 -6.42 104.89 -5.58 104.89 -4.6C104.89 -3.65 105.09 -2.82 105.5 -2.12C105.9 -1.41 106.46 -0.87 107.17 -0.49C107.87 -0.12 108.65 0.07 109.51 0.07C110.03 0.07 110.56 -0.02 111.09 -0.18C111.62 -0.35 112.1 -0.6 112.53 -0.92L112.53 0.32C112.53 1.21 112.27 1.88 111.74 2.31C111.22 2.75 110.49 2.97 109.54 2.97C108.69 2.97 107.69 2.79 106.52 2.44L106.18 3.77C107.37 4.14 108.51 4.33 109.58 4.33C110.99 4.33 112.12 3.99 112.96 3.31C113.81 2.64 114.23 1.6 114.23 0.21L114.23 -7.82L115.75 -7.82ZM107.56 -2.07C106.96 -2.65 106.66 -3.46 106.66 -4.49C106.66 -5.59 106.93 -6.46 107.49 -7.08C108.04 -7.7 108.77 -8.01 109.67 -8.01C110.12 -8.01 110.59 -7.92 111.09 -7.76C111.59 -7.59 112.06 -7.36 112.5 -7.07L112.53 -2.09C112.13 -1.8 111.69 -1.58 111.23 -1.43C110.76 -1.27 110.3 -1.2 109.86 -1.2C108.92 -1.2 108.15 -1.49 107.56 -2.07Z"></path></g></g></g></svg>