<?xml version="1.0" encoding="UTF-8"?>
<svg id="Vrstva_1" data-name="Vrstva 1" xmlns="http://www.w3.org/2000/svg" version="1.1" viewBox="0 0 2300 8000">
  <defs>
    <style>
      .cls-1 {
        fill: #f4fbff;
        stroke-width: 0px;
      }
    </style>
  </defs>
  <rect class="cls-1" x="-488.7" y="1137.6" width="1819" height="240" rx="120" ry="120" transform="translate(-294.1 140.6) rotate(-14.1)"/>
  <rect class="cls-1" x="-820.1" y="410.8" width="1819" height="240" rx="120" ry="120" transform="translate(-126.8 37.8) rotate(-14.1)"/>
  <rect class="cls-1" x="-911.4" y="1987.4" width="2071" height="356.9" rx="178.5" ry="178.5" transform="translate(-524.6 95.7) rotate(-14.1)"/>
  <rect class="cls-1" x="-887.9" y="1700.4" width="1326.7" height="141.3" rx="70.7" ry="70.7" transform="translate(-438.8 -1.3) rotate(-14.1)"/>
  <rect class="cls-1" x="-537.1" y="2802.2" width="1322.4" height="105.3" rx="52.7" ry="52.7" transform="translate(-692.7 116.5) rotate(-14.1)"/>
  <rect class="cls-1" x="-747" y="914.9" width="1322.4" height="105.3" rx="52.7" ry="52.7" transform="translate(-238.6 8.3) rotate(-14.1)"/>
  <rect class="cls-1" x="-417.5" y="4499.8" width="1819" height="240" rx="120" ry="120" transform="translate(-1112.1 259.6) rotate(-14.1)"/>
  <rect class="cls-1" x="-753.7" y="3561" width="1819" height="240" rx="120" ry="120" transform="translate(-893.3 149.2) rotate(-14.1)"/>
  <rect class="cls-1" x="-1314" y="5419.7" width="2071" height="356.9" rx="178.5" ry="178.5" transform="translate(-1374.1 101.2) rotate(-14.1)"/>
  <rect class="cls-1" x="-965.1" y="5111.5" width="1326.7" height="141.3" rx="70.7" ry="70.7" transform="translate(-1273.3 82.9) rotate(-14.1)"/>
  <rect class="cls-1" x="-613.1" y="6164.4" width="1322.4" height="105.3" rx="52.7" ry="52.7" transform="translate(-1515.2 199.5) rotate(-14.1)"/>
  <rect class="cls-1" x="-661.2" y="4011.1" width="1322.4" height="105.3" rx="52.7" ry="52.7" transform="translate(-991.3 122.8) rotate(-14.1)"/>
  <rect class="cls-1" x="-488.7" y="7518.6" width="1819" height="240" rx="120" ry="120" transform="translate(-1850.7 333.4) rotate(-14.1)"/>
  <rect class="cls-1" x="-400.2" y="6687.3" width="1819" height="240" rx="120" ry="120" transform="translate(-1645.2 329.9) rotate(-14.1)"/>
  <rect class="cls-1" x="-775.2" y="7207.4" width="1322.4" height="105.3" rx="52.7" ry="52.7" transform="translate(-1774.5 191.5) rotate(-14.1)"/>
  <rect class="cls-1" x="1487.3" y="1177.6" width="1819" height="240" rx="120" ry="120" transform="translate(-244.1 623.9) rotate(-14.1)"/>
  <rect class="cls-1" x="1058.9" y="330.8" width="1819" height="240" rx="120" ry="120" transform="translate(-50.5 493.8) rotate(-14.1)"/>
  <rect class="cls-1" x="1004.6" y="2147.4" width="2071" height="356.9" rx="178.5" ry="178.5" transform="translate(-505.8 567.9) rotate(-14.1)"/>
  <rect class="cls-1" x="1225.9" y="1724" width="1326.7" height="141.3" rx="70.7" ry="70.7" transform="translate(-380.7 515.1) rotate(-14.1)"/>
  <rect class="cls-1" x="1702.6" y="2794.2" width="1322.4" height="105.3" rx="52.7" ry="52.7" transform="translate(-623.1 662.6) rotate(-14.1)"/>
  <rect class="cls-1" x="1702.6" y="802.9" width="1322.4" height="105.3" rx="52.7" ry="52.7" transform="translate(-137.3 602.5) rotate(-14.1)"/>
  <rect class="cls-1" x="1790.5" y="4499.8" width="1819" height="240" rx="120" ry="120" transform="translate(-1045.4 798.2) rotate(-14.1)"/>
  <rect class="cls-1" x="1661.1" y="3409" width="1819" height="240" rx="120" ry="120" transform="translate(-783.2 733.7) rotate(-14.1)"/>
  <rect class="cls-1" x="928.5" y="5556.7" width="2071" height="356.9" rx="178.5" ry="178.5" transform="translate(-1339.7 652.4) rotate(-14.1)"/>
  <rect class="cls-1" x="1242.9" y="5075.5" width="1326.7" height="141.3" rx="70.7" ry="70.7" transform="translate(-1197.8 620.5) rotate(-14.1)"/>
  <rect class="cls-1" x="1724.6" y="5987.1" width="1322.4" height="105.3" rx="52.7" ry="52.7" transform="translate(-1401.3 764.5) rotate(-14.1)"/>
  <rect class="cls-1" x="1546.8" y="4011.1" width="1322.4" height="105.3" rx="52.7" ry="52.7" transform="translate(-924.6 661.4) rotate(-14.1)"/>
  <rect class="cls-1" x="1698.2" y="7434.8" width="1819" height="240" rx="120" ry="120" transform="translate(-1764.2 864.4) rotate(-14.1)"/>
  <rect class="cls-1" x="1835.8" y="6515.3" width="1819" height="240" rx="120" ry="120" transform="translate(-1535.7 870.2) rotate(-14.1)"/>
  <rect class="cls-1" x="1520.8" y="7180.9" width="1322.4" height="105.3" rx="52.7" ry="52.7" transform="translate(-1698.7 750.8) rotate(-14.1)"/>
</svg>